<svg id="Layer_1" data-name="Layer 1" xmlns="http://www.w3.org/2000/svg" viewBox="0 0 2000 700"><defs><style>.cls-1{fill:#333;}.cls-2{fill:#29abe2;}</style></defs><title>donate</title><rect class="cls-1" x="14" y="14" width="1972" height="672"/><path class="cls-2" d="M1972,28V672H28V28H1972m28-28H0V700H2000V0Z"/><path class="cls-2" d="M251.67,182.91h34v284h-34Zm27,252h64.26q35.53,0,54-17.38t18.46-50.78V283.11q0-33.41-18.46-50.79t-54-17.38H278.62v-32H341.7q35.16,0,59.28,11.52t36.43,34.28q12.3,22.75,12.3,56v80.47q0,33.19-12.3,55.86t-36.53,34.27q-24.21,11.63-59.37,11.62H278.62Z"/><path class="cls-2" d="M562.28,457.23A84.12,84.12,0,0,1,527.71,421q-12-23.64-12-55.86V284.67q0-32.24,12-55.86a84.12,84.12,0,0,1,34.57-36.23Q584.82,180,615.5,180t53.22,12.6a84.17,84.17,0,0,1,34.57,36.23q12,23.63,12,55.86v80.47q0,32.22-12,55.86a84.17,84.17,0,0,1-34.57,36.23q-22.56,12.6-53.22,12.59T562.28,457.23Zm88.08-28.52A56.42,56.42,0,0,0,673,404.3q7.9-15.92,7.91-37.8V283.3q0-21.87-7.91-37.79a56.5,56.5,0,0,0-22.66-24.42q-14.75-8.49-34.86-8.49t-34.86,8.49A56.38,56.38,0,0,0,558,245.51q-7.9,15.92-7.91,37.79v83.2q0,21.88,7.91,37.8a56.3,56.3,0,0,0,22.66,24.41q14.73,8.51,34.86,8.5T650.36,428.71Z"/><path class="cls-2" d="M791.05,182.91h32.23l152,237.7-8.2-1.37V182.91h33.79V466.7H968.2L814.88,229.59l10,3.12v234H791.05Z"/><path class="cls-2" d="M1159.77,182.91h34l104.69,284h-37.11L1176.76,225.1l-84.57,241.79h-37.11Zm-56.45,186.33h149.41v32H1103.32Z"/><path class="cls-2" d="M1309.73,182.91h200.39v32H1309.73Zm83.2,17.38h34v266.6h-34Z"/><path class="cls-2" d="M1564.38,182.91h34v284h-34Zm19.34,0h163.09v32H1583.72Zm0,127h141.6v32h-141.6Zm0,125h163.09v32H1583.72Z"/></svg>