<?xml version="1.0" encoding="UTF-8" standalone="no"?>
<!-- Created with Inkscape (http://www.inkscape.org/) -->

<svg
   width="1000mm"
   height="1000mm"
   viewBox="0 0 1000 1000"
   version="1.1"
   id="svg277"
   inkscape:version="1.1.1 (3bf5ae0d25, 2021-09-20, custom)"
   sodipodi:docname="favicon.svg"
   xmlns:inkscape="http://www.inkscape.org/namespaces/inkscape"
   xmlns:sodipodi="http://sodipodi.sourceforge.net/DTD/sodipodi-0.dtd"
   xmlns="http://www.w3.org/2000/svg"
   xmlns:svg="http://www.w3.org/2000/svg">
  <sodipodi:namedview
     id="namedview279"
     pagecolor="#505050"
     bordercolor="#ffffff"
     borderopacity="1"
     inkscape:pageshadow="0"
     inkscape:pageopacity="0"
     inkscape:pagecheckerboard="1"
     inkscape:document-units="mm"
     showgrid="false"
     width="1000mm"
     inkscape:zoom="0.16"
     inkscape:cx="2446.875"
     inkscape:cy="1731.25"
     inkscape:window-width="1544"
     inkscape:window-height="1025"
     inkscape:window-x="187"
     inkscape:window-y="1122"
     inkscape:window-maximized="0"
     inkscape:current-layer="layer2" />
  <defs
     id="defs274">
    <style
       id="style1022">.cls-1{fill:none;}.cls-2{isolation:isolate;}.cls-3{clip-path:url(#clip-path);}.cls-4{fill:#c00;}.cls-5{clip-path:url(#clip-path-2);}.cls-6{fill:#ce0000;}.cls-7{fill:#cd0000;}.cls-8{fill:#cf0000;}.cls-9{fill:#fa0000;}.cls-10{clip-path:url(#clip-path-3);}.cls-11{fill:#c80;}.cls-12{clip-path:url(#clip-path-4);}.cls-13{fill:#ce8a00;}.cls-14{fill:#ce8900;}.cls-15{fill:#cd8900;}.cls-16{fill:#cd8800;}.cls-17{fill:#cf8a00;}.cls-18{fill:#faa700;}</style>
    <clipPath
       id="clip-path"
       transform="translate(0.26 -10.7)">
      <path
         class="cls-1"
         d="M194.53,942.49l-65.62,17.25C89.83,970,46.89,979.63-.26,988.44l65.61-17.25C112.5,962.38,155.44,952.77,194.53,942.49Z"
         id="path1024" />
    </clipPath>
    <clipPath
       id="clip-path-2"
       transform="translate(0.26 -10.7)">
      <path
         class="cls-1"
         d="M656.13,41.29,721.75,24C583.6,60.36,443.83,125.36,410,248.63c-39.22,142.79,93.35,255.52,64,408.72-19,99.49-107.08,220-408.65,313.84L-.26,988.44C301.3,894.64,389.36,774.09,408.38,674.6c29.32-153.19-103.26-265.93-64-408.71C378.21,142.61,518,77.61,656.13,41.29Z"
         id="path1027" />
    </clipPath>
    <clipPath
       id="clip-path-3"
       transform="translate(0.26 -10.7)">
      <path
         class="cls-1"
         d="M555.83,949.89l-65.61,17.25C460.46,975,427.76,982.28,391.87,989l65.61-17.25C493.38,965,526.07,957.72,555.83,949.89Z"
         id="path1030" />
    </clipPath>
    <clipPath
       id="clip-path-4"
       transform="translate(0.26 -10.7)">
      <path
         class="cls-1"
         d="M891.67,267.82l65.62-17.25c-105.2,27.66-211.64,77.14-237.43,171C690,530.3,790.94,616.14,768.62,732.79c-14.48,75.74-81.54,167.52-311.14,239L391.87,989C621.47,917.56,688.52,825.79,703,750c22.31-116.65-78.62-202.49-48.77-311.2C680,345,786.47,295.48,891.67,267.82Z"
         id="path1033" />
    </clipPath>
  </defs>
  <g
     inkscape:label="Layer 1"
     inkscape:groupmode="layer"
     id="layer1">
    <circle
       style="fill:#1a1a1a;fill-rule:evenodd;stroke-width:0.277168"
       id="path303"
       cx="500"
       cy="500"
       r="500" />
  </g>
  <g
     inkscape:groupmode="layer"
     id="layer2"
     inkscape:label="Layer 2">
    <g
       id="g1262"
       transform="matrix(0.72492902,0,0,0.72492902,139.41418,130.33488)">
      <g
         class="cls-2"
         id="g1108">
        <g
           class="cls-2"
           id="g1046">
          <g
             class="cls-3"
             clip-path="url(#clip-path)"
             id="g1044">
            <g
               class="cls-2"
               id="g1042">
              <path
                 class="cls-4"
                 d="m 194.53,942.49 -65.62,17.25 C 89.83,970 46.89,979.63 -0.26,988.44 l 65.61,-17.25 c 47.15,-8.81 90.09,-18.42 129.18,-28.7"
                 transform="translate(0.26,-10.7)"
                 id="path1040" />
            </g>
          </g>
        </g>
        <g
           class="cls-2"
           id="g1104">
          <g
             class="cls-5"
             clip-path="url(#clip-path-2)"
             id="g1102">
            <g
               class="cls-2"
               id="g1100">
              <path
                 class="cls-6"
                 d="M 65.35,971.19 -0.26,988.44 Q 38.88,976.26 73.3,963.52 l 65.62,-17.25 Q 104.44,959 65.35,971.19"
                 transform="translate(0.26,-10.7)"
                 id="path1048" />
              <path
                 class="cls-6"
                 d="M 138.92,946.27 73.3,963.52 c 29.68,-10.95 56.84,-22.18 81.7,-33.63 l 65.62,-17.26 q -37.29,17.18 -81.7,33.64"
                 transform="translate(0.26,-10.7)"
                 id="path1050" />
              <path
                 class="cls-6"
                 d="M 220.62,912.63 155,929.89 q 29.81,-13.74 55.3,-27.84 l 65.61,-17.25 q -25.53,14.09 -55.29,27.83"
                 transform="translate(0.26,-10.7)"
                 id="path1052" />
              <path
                 class="cls-6"
                 d="m 275.91,884.8 -65.61,17.25 q 21.76,-12 40.61,-24.22 l 65.62,-17.25 q -18.88,12.2 -40.62,24.22"
                 transform="translate(0.26,-10.7)"
                 id="path1054" />
              <path
                 class="cls-6"
                 d="m 316.53,860.58 -65.62,17.25 q 16.65,-10.76 31.18,-21.64 l 65.61,-17.25 q -14.54,10.88 -31.17,21.64"
                 transform="translate(0.26,-10.7)"
                 id="path1056" />
              <path
                 class="cls-6"
                 d="m 347.7,838.94 -65.61,17.25 q 13.31,-9.95 24.93,-20 L 372.64,819 Q 361,829 347.7,839"
                 transform="translate(0.26,-10.7)"
                 id="path1058" />
              <path
                 class="cls-7"
                 d="M 372.64,819 307,836.24 q 10.92,-9.37 20.46,-18.78 l 65.61,-17.25 q -9.54,9.4 -20.45,18.78"
                 transform="translate(0.26,-10.7)"
                 id="path1060" />
              <path
                 class="cls-7"
                 d="m 393.09,800.21 -65.61,17.25 q 9.19,-9 17.18,-18.09 l 65.61,-17.26 q -8,9 -17.18,18.1"
                 transform="translate(0.26,-10.7)"
                 id="path1062" />
              <path
                 class="cls-7"
                 d="m 410.27,782.11 -65.61,17.26 q 8,-9 14.84,-18 l 65.62,-17.26 q -6.87,9 -14.85,18.05"
                 transform="translate(0.26,-10.7)"
                 id="path1064" />
              <path
                 class="cls-7"
                 d="m 425.12,764.06 -65.62,17.26 q 7.14,-9.37 13.14,-18.69 l 65.61,-17.25 q -6,9.32 -13.13,18.68"
                 transform="translate(0.26,-10.7)"
                 id="path1066" />
              <path
                 class="cls-7"
                 d="m 438.25,745.38 -65.61,17.25 q 6.6,-10.25 11.92,-20.37 L 450.18,725 q -5.34,10.14 -11.93,20.38"
                 transform="translate(0.26,-10.7)"
                 id="path1068" />
              <path
                 class="cls-4"
                 d="m 450.18,725 -65.62,17.26 a 251.35,251.35 0 0 0 11.34,-24.67 l 65.61,-17.25 A 250,250 0 0 1 450.18,725"
                 transform="translate(0.26,-10.7)"
                 id="path1070" />
              <path
                 class="cls-4"
                 d="m 461.51,700.34 -65.61,17.25 a 239.65,239.65 0 0 0 12.48,-43 C 437.7,521.4 305.12,408.66 344.38,265.88 a 208.33,208.33 0 0 1 7.14,-21.37 l 65.62,-17.25 A 206.55,206.55 0 0 0 410,248.63 c -39.22,142.79 93.35,255.52 64,408.72 a 238.89,238.89 0 0 1 -12.49,43"
                 transform="translate(0.26,-10.7)"
                 id="path1072" />
              <path
                 class="cls-4"
                 d="m 417.1,227.27 -65.62,17.25 A 208.56,208.56 0 0 1 361,223.83 l 65.62,-17.25 a 208.56,208.56 0 0 0 -9.52,20.69"
                 transform="translate(0.26,-10.7)"
                 id="path1074" />
              <path
                 class="cls-7"
                 d="M 426.62,206.58 361,223.83 q 4.51,-8.57 9.77,-16.69 l 65.62,-17.25 q -5.25,8.13 -9.77,16.69"
                 transform="translate(0.26,-10.7)"
                 id="path1076" />
              <path
                 class="cls-7"
                 d="m 436.39,189.89 -65.62,17.25 q 4.91,-7.59 10.41,-14.8 l 65.61,-17.25 q -5.49,7.22 -10.4,14.8"
                 transform="translate(0.26,-10.7)"
                 id="path1078" />
              <path
                 class="cls-7"
                 d="m 446.79,175.09 -65.61,17.25 q 5.47,-7.18 11.54,-14 l 65.61,-17.25 q -6,6.84 -11.54,14"
                 transform="translate(0.26,-10.7)"
                 id="path1080" />
              <path
                 class="cls-7"
                 d="m 458.33,161.06 -65.61,17.25 q 6.24,-7 13,-13.74 l 65.61,-17.25 q -6.79,6.69 -13.05,13.74"
                 transform="translate(0.26,-10.7)"
                 id="path1082" />
              <path
                 class="cls-7"
                 d="m 471.38,147.32 -65.61,17.25 q 7.22,-7.09 15,-13.79 l 65.62,-17.25 q -7.8,6.69 -15,13.79"
                 transform="translate(0.26,-10.7)"
                 id="path1084" />
              <path
                 class="cls-6"
                 d="m 486.42,133.53 -65.62,17.25 q 8.55,-7.32 17.74,-14.18 l 65.61,-17.25 q -9.18,6.86 -17.73,14.18"
                 transform="translate(0.26,-10.7)"
                 id="path1086" />
              <path
                 class="cls-6"
                 d="m 504.15,119.35 -65.61,17.25 q 10.35,-7.72 21.44,-14.88 l 65.61,-17.25 q -11.07,7.16 -21.44,14.88"
                 transform="translate(0.26,-10.7)"
                 id="path1088" />
              <path
                 class="cls-6"
                 d="M 525.59,104.47 460,121.72 q 12.93,-8.35 26.75,-16 l 65.62,-17.25 q -13.8,7.6 -26.76,16"
                 transform="translate(0.26,-10.7)"
                 id="path1090" />
              <path
                 class="cls-6"
                 d="m 552.35,88.51 -65.62,17.25 Q 503.85,96.32 522.05,88 l 65.62,-17.25 c -12.11,5.57 -23.92,11.49 -35.32,17.78"
                 transform="translate(0.26,-10.7)"
                 id="path1092" />
              <path
                 class="cls-6"
                 d="M 587.67,70.73 522.05,88 c 15.73,-7.24 32,-13.88 48.53,-20 L 636.2,50.73 c -16.56,6.11 -32.81,12.76 -48.53,20"
                 transform="translate(0.26,-10.7)"
                 id="path1094" />
              <path
                 class="cls-6"
                 d="M 636.2,50.73 570.58,68 c 24.17,-8.93 49,-16.72 73.9,-23.56 L 710.1,27.17 C 685.21,34 660.37,41.8 636.2,50.73"
                 transform="translate(0.26,-10.7)"
                 id="path1096" />
              <path
                 class="cls-8"
                 d="m 710.1,27.17 -65.62,17.25 q 5.84,-1.61 11.65,-3.13 L 721.75,24 q -5.82,1.53 -11.65,3.13"
                 transform="translate(0.26,-10.7)"
                 id="path1098" />
            </g>
          </g>
        </g>
        <path
           class="cls-9"
           d="M 777.89,10.7 C 675.69,48.85 554.8,116.09 517.08,239.87 c -49.91,163.82 87,291.62 52.93,439.38 C 545.83,784.1 434.83,902.15 65.35,971.19 366.92,877.38 455,756.84 474,657.35 503.31,504.15 370.74,391.42 410,248.63 448.45,108.55 623.68,43.72 777.89,10.7 Z"
           transform="translate(0.26,-10.7)"
           id="path1106" />
      </g>
      <g
         class="cls-2"
         id="g1178">
        <g
           class="cls-2"
           id="g1116">
          <g
             class="cls-10"
             clip-path="url(#clip-path-3)"
             id="g1114">
            <g
               class="cls-2"
               id="g1112">
              <path
                 class="cls-11"
                 d="m 555.83,949.89 -65.61,17.25 C 460.46,975 427.76,982.28 391.87,989 l 65.61,-17.25 c 35.9,-6.71 68.59,-14 98.35,-21.85"
                 transform="translate(0.26,-10.7)"
                 id="path1110" />
            </g>
          </g>
        </g>
        <g
           class="cls-2"
           id="g1174">
          <g
             class="cls-12"
             clip-path="url(#clip-path-4)"
             id="g1172">
            <g
               class="cls-2"
               id="g1170">
              <path
                 class="cls-13"
                 d="M 457.48,971.74 391.87,989 q 29.78,-9.25 56,-19 l 65.62,-17.25 q -26.24,9.69 -56,19"
                 transform="translate(0.26,-10.7)"
                 id="path1118" />
              <path
                 class="cls-13"
                 d="M 513.46,952.78 447.84,970 c 22.6,-8.34 43.29,-16.89 62.23,-25.61 l 65.61,-17.26 c -18.93,8.72 -39.62,17.28 -62.22,25.62"
                 transform="translate(0.26,-10.7)"
                 id="path1120" />
              <path
                 class="cls-14"
                 d="m 575.68,927.16 -65.61,17.26 q 22.7,-10.45 42.1,-21.2 L 617.79,906 c -13,7.15 -27,14.22 -42.11,21.19"
                 transform="translate(0.26,-10.7)"
                 id="path1122" />
              <path
                 class="cls-14"
                 d="m 617.79,906 -65.62,17.25 q 16.59,-9.15 30.94,-18.45 l 65.61,-17.25 q -14.37,9.3 -30.93,18.45"
                 transform="translate(0.26,-10.7)"
                 id="path1124" />
              <path
                 class="cls-14"
                 d="m 648.72,887.52 -65.61,17.25 q 12.67,-8.19 23.73,-16.47 L 672.46,871 q -11.07,8.28 -23.74,16.48"
                 transform="translate(0.26,-10.7)"
                 id="path1126" />
              <path
                 class="cls-14"
                 d="m 672.46,871 -65.62,17.3 q 10.14,-7.57 19,-15.2 l 65.62,-17.25 q -8.87,7.62 -19,15.19"
                 transform="translate(0.26,-10.7)"
                 id="path1128" />
              <path
                 class="cls-15"
                 d="m 691.45,855.85 -65.62,17.25 q 8.32,-7.14 15.58,-14.29 L 707,841.55 q -7.26,7.16 -15.57,14.3"
                 transform="translate(0.26,-10.7)"
                 id="path1130" />
              <path
                 class="cls-15"
                 d="m 707,841.55 -65.61,17.26 q 7,-6.9 13.08,-13.78 l 65.62,-17.26 Q 714,834.66 707,841.55"
                 transform="translate(0.26,-10.7)"
                 id="path1132" />
              <path
                 class="cls-15"
                 d="M 720.11,827.77 654.49,845 q 6.07,-6.88 11.3,-13.75 L 731.41,814 q -5.24,6.86 -11.3,13.74"
                 transform="translate(0.26,-10.7)"
                 id="path1134" />
              <path
                 class="cls-15"
                 d="m 731.41,814 -65.62,17.25 q 5.44,-7.14 10,-14.23 l 65.62,-17.25 q -4.57,7.1 -10,14.23"
                 transform="translate(0.26,-10.7)"
                 id="path1136" />
              <path
                 class="cls-16"
                 d="m 741.41,799.8 -65.62,17.25 q 5,-7.78 9.08,-15.51 l 65.62,-17.25 q -4.07,7.71 -9.08,15.51"
                 transform="translate(0.26,-10.7)"
                 id="path1138" />
              <path
                 class="cls-11"
                 d="m 750.49,784.29 -65.62,17.25 a 186.76,186.76 0 0 0 8.63,-18.78 l 65.62,-17.25 a 192.39,192.39 0 0 1 -8.63,18.78"
                 transform="translate(0.26,-10.7)"
                 id="path1140" />
              <path
                 class="cls-11"
                 d="M 759.12,765.51 693.5,782.76 A 182.39,182.39 0 0 0 703,750 C 725.31,633.35 624.38,547.51 654.23,438.8 a 158.36,158.36 0 0 1 5.44,-16.27 l 65.62,-17.25 a 156,156 0 0 0 -5.44,16.27 C 690,530.3 790.94,616.14 768.62,732.79 a 181.52,181.52 0 0 1 -9.5,32.72"
                 transform="translate(0.26,-10.7)"
                 id="path1142" />
              <path
                 class="cls-11"
                 d="m 725.3,405.32 -65.62,17.25 a 158.32,158.32 0 0 1 7.25,-15.75 l 65.61,-17.25 a 160.55,160.55 0 0 0 -7.24,15.75"
                 transform="translate(0.26,-10.7)"
                 id="path1144" />
              <path
                 class="cls-16"
                 d="m 732.54,389.57 -65.61,17.25 q 3.44,-6.52 7.44,-12.71 L 740,376.86 q -4,6.18 -7.45,12.71"
                 transform="translate(0.26,-10.7)"
                 id="path1146" />
              <path
                 class="cls-15"
                 d="m 740,376.86 -65.62,17.25 q 3.72,-5.78 7.92,-11.26 l 65.62,-17.26 q -4.18,5.49 -7.92,11.27"
                 transform="translate(0.26,-10.7)"
                 id="path1148" />
              <path
                 class="cls-15"
                 d="m 747.91,365.59 -65.62,17.26 c 2.78,-3.66 5.72,-7.22 8.78,-10.69 l 65.62,-17.25 q -4.61,5.2 -8.78,10.68"
                 transform="translate(0.26,-10.7)"
                 id="path1150" />
              <path
                 class="cls-15"
                 d="m 756.69,354.91 -65.62,17.25 q 4.75,-5.37 9.94,-10.46 l 65.62,-17.25 q -5.18,5.08 -9.94,10.46"
                 transform="translate(0.26,-10.7)"
                 id="path1152" />
              <path
                 class="cls-15"
                 d="M 766.63,344.45 701,361.7 q 5.5,-5.4 11.45,-10.5 L 778.08,334 q -5.94,5.08 -11.45,10.5"
                 transform="translate(0.26,-10.7)"
                 id="path1154" />
              <path
                 class="cls-14"
                 d="m 778.08,334 -65.62,17.2 q 6.51,-5.58 13.5,-10.8 l 65.62,-17.25 q -7,5.22 -13.5,10.8"
                 transform="translate(0.26,-10.7)"
                 id="path1156" />
              <path
                 class="cls-14"
                 d="M 791.58,323.15 726,340.4 q 7.89,-5.88 16.33,-11.32 l 65.61,-17.26 q -8.43,5.44 -16.32,11.33"
                 transform="translate(0.26,-10.7)"
                 id="path1158" />
              <path
                 class="cls-14"
                 d="m 807.9,311.82 -65.61,17.26 c 6.56,-4.25 13.37,-8.3 20.37,-12.16 l 65.62,-17.25 q -10.51,5.79 -20.38,12.15"
                 transform="translate(0.26,-10.7)"
                 id="path1160" />
              <path
                 class="cls-14"
                 d="m 828.28,299.67 -65.62,17.25 c 8.68,-4.79 17.67,-9.3 26.89,-13.54 l 65.62,-17.25 c -9.22,4.24 -18.21,8.75 -26.89,13.54"
                 transform="translate(0.26,-10.7)"
                 id="path1162" />
              <path
                 class="cls-13"
                 d="m 855.17,286.13 -65.62,17.25 c 12,-5.51 24.34,-10.57 37,-15.23 l 65.61,-17.25 c -12.61,4.66 -25,9.72 -37,15.23"
                 transform="translate(0.26,-10.7)"
                 id="path1164" />
              <path
                 class="cls-13"
                 d="m 892.12,270.9 -65.61,17.25 c 18.4,-6.8 37.33,-12.73 56.28,-17.94 L 948.41,253 c -19,5.21 -37.88,11.15 -56.29,17.95"
                 transform="translate(0.26,-10.7)"
                 id="path1166" />
              <path
                 class="cls-17"
                 d="m 948.41,253 -65.62,17.26 c 3,-0.82 5.92,-1.61 8.88,-2.39 l 65.62,-17.25 q -4.44,1.17 -8.88,2.38"
                 transform="translate(0.26,-10.7)"
                 id="path1168" />
            </g>
          </g>
        </g>
        <path
           class="cls-18"
           d="m 1000,240.42 c -77.81,29.06 -169.86,80.25 -198.58,174.51 -38,124.71 66.24,222 40.3,334.53 -18.41,79.83 -102.93,169.72 -384.24,222.28 229.6,-71.43 296.66,-163.21 311.14,-239 C 790.94,616.14 690,530.3 719.86,421.59 749.17,314.93 882.58,265.57 1000,240.42 Z"
           transform="translate(0.26,-10.7)"
           id="path1176" />
      </g>
    </g>
  </g>
</svg>
