<svg id="Layer_1" data-name="Layer 1" xmlns="http://www.w3.org/2000/svg" xmlns:xlink="http://www.w3.org/1999/xlink" viewBox="0 0 1000.26 978.29"><defs><style>.cls-1{fill:none;}.cls-2{isolation:isolate;}.cls-3{clip-path:url(#clip-path);}.cls-4{fill:#c00;}.cls-5{clip-path:url(#clip-path-2);}.cls-6{fill:#ce0000;}.cls-7{fill:#cd0000;}.cls-8{fill:#cf0000;}.cls-9{fill:#fa0000;}.cls-10{clip-path:url(#clip-path-3);}.cls-11{fill:#c80;}.cls-12{clip-path:url(#clip-path-4);}.cls-13{fill:#ce8a00;}.cls-14{fill:#ce8900;}.cls-15{fill:#cd8900;}.cls-16{fill:#cd8800;}.cls-17{fill:#cf8a00;}.cls-18{fill:#faa700;}</style><clipPath id="clip-path" transform="translate(0.26 -10.7)"><path class="cls-1" d="M194.53,942.49l-65.62,17.25C89.83,970,46.89,979.63-.26,988.44l65.61-17.25C112.5,962.38,155.44,952.77,194.53,942.49Z"/></clipPath><clipPath id="clip-path-2" transform="translate(0.26 -10.7)"><path class="cls-1" d="M656.13,41.29,721.75,24C583.6,60.36,443.83,125.36,410,248.63c-39.22,142.79,93.35,255.52,64,408.72-19,99.49-107.08,220-408.65,313.84L-.26,988.44C301.3,894.64,389.36,774.09,408.38,674.6c29.32-153.19-103.26-265.93-64-408.71C378.21,142.61,518,77.61,656.13,41.29Z"/></clipPath><clipPath id="clip-path-3" transform="translate(0.26 -10.7)"><path class="cls-1" d="M555.83,949.89l-65.61,17.25C460.46,975,427.76,982.28,391.87,989l65.61-17.25C493.38,965,526.07,957.72,555.83,949.89Z"/></clipPath><clipPath id="clip-path-4" transform="translate(0.26 -10.7)"><path class="cls-1" d="M891.67,267.82l65.62-17.25c-105.2,27.66-211.64,77.14-237.43,171C690,530.3,790.94,616.14,768.62,732.79c-14.48,75.74-81.54,167.52-311.14,239L391.87,989C621.47,917.56,688.52,825.79,703,750c22.31-116.65-78.62-202.49-48.77-311.2C680,345,786.47,295.48,891.67,267.82Z"/></clipPath></defs><title>spikespaz-logo-transparent</title><g class="cls-2"><g class="cls-2"><g class="cls-3"><g class="cls-2"><path class="cls-4" d="M194.53,942.49l-65.62,17.25C89.83,970,46.89,979.63-.26,988.44l65.61-17.25c47.15-8.81,90.09-18.42,129.18-28.7" transform="translate(0.26 -10.7)"/></g></g></g><g class="cls-2"><g class="cls-5"><g class="cls-2"><path class="cls-6" d="M65.35,971.19-.26,988.44q39.14-12.18,73.56-24.92l65.62-17.25Q104.44,959,65.35,971.19" transform="translate(0.26 -10.7)"/><path class="cls-6" d="M138.92,946.27,73.3,963.52c29.68-10.95,56.84-22.18,81.7-33.63l65.62-17.26q-37.29,17.18-81.7,33.64" transform="translate(0.26 -10.7)"/><path class="cls-6" d="M220.62,912.63,155,929.89q29.81-13.74,55.3-27.84l65.61-17.25q-25.53,14.09-55.29,27.83" transform="translate(0.26 -10.7)"/><path class="cls-6" d="M275.91,884.8,210.3,902.05q21.76-12,40.61-24.22l65.62-17.25q-18.88,12.2-40.62,24.22" transform="translate(0.26 -10.7)"/><path class="cls-6" d="M316.53,860.58l-65.62,17.25q16.65-10.76,31.18-21.64l65.61-17.25q-14.54,10.88-31.17,21.64" transform="translate(0.26 -10.7)"/><path class="cls-6" d="M347.7,838.94l-65.61,17.25q13.31-9.95,24.93-20L372.64,819q-11.64,10-24.94,20" transform="translate(0.26 -10.7)"/><path class="cls-7" d="M372.64,819,307,836.24q10.92-9.37,20.46-18.78l65.61-17.25q-9.54,9.4-20.45,18.78" transform="translate(0.26 -10.7)"/><path class="cls-7" d="M393.09,800.21l-65.61,17.25q9.19-9,17.18-18.09l65.61-17.26q-8,9-17.18,18.1" transform="translate(0.26 -10.7)"/><path class="cls-7" d="M410.27,782.11l-65.61,17.26q8-9,14.84-18l65.62-17.26q-6.87,9-14.85,18.05" transform="translate(0.26 -10.7)"/><path class="cls-7" d="M425.12,764.06,359.5,781.32q7.14-9.37,13.14-18.69l65.61-17.25q-6,9.32-13.13,18.68" transform="translate(0.26 -10.7)"/><path class="cls-7" d="M438.25,745.38l-65.61,17.25q6.6-10.25,11.92-20.37L450.18,725q-5.34,10.14-11.93,20.38" transform="translate(0.26 -10.7)"/><path class="cls-4" d="M450.18,725l-65.62,17.26a251.35,251.35,0,0,0,11.34-24.67l65.61-17.25A250,250,0,0,1,450.18,725" transform="translate(0.26 -10.7)"/><path class="cls-4" d="M461.51,700.34,395.9,717.59a239.65,239.65,0,0,0,12.48-43c29.32-153.19-103.26-265.93-64-408.71a208.33,208.33,0,0,1,7.14-21.37l65.62-17.25A206.55,206.55,0,0,0,410,248.63c-39.22,142.79,93.35,255.52,64,408.72a238.89,238.89,0,0,1-12.49,43" transform="translate(0.26 -10.7)"/><path class="cls-4" d="M417.1,227.27l-65.62,17.25A208.56,208.56,0,0,1,361,223.83l65.62-17.25a208.56,208.56,0,0,0-9.52,20.69" transform="translate(0.26 -10.7)"/><path class="cls-7" d="M426.62,206.58,361,223.83q4.51-8.57,9.77-16.69l65.62-17.25q-5.25,8.13-9.77,16.69" transform="translate(0.26 -10.7)"/><path class="cls-7" d="M436.39,189.89l-65.62,17.25q4.91-7.59,10.41-14.8l65.61-17.25q-5.49,7.22-10.4,14.8" transform="translate(0.26 -10.7)"/><path class="cls-7" d="M446.79,175.09l-65.61,17.25q5.47-7.18,11.54-14l65.61-17.25q-6,6.84-11.54,14" transform="translate(0.26 -10.7)"/><path class="cls-7" d="M458.33,161.06l-65.61,17.25q6.24-7,13-13.74l65.61-17.25q-6.79,6.69-13.05,13.74" transform="translate(0.26 -10.7)"/><path class="cls-7" d="M471.38,147.32l-65.61,17.25q7.22-7.09,15-13.79l65.62-17.25q-7.8,6.69-15,13.79" transform="translate(0.26 -10.7)"/><path class="cls-6" d="M486.42,133.53,420.8,150.78q8.55-7.32,17.74-14.18l65.61-17.25q-9.18,6.86-17.73,14.18" transform="translate(0.26 -10.7)"/><path class="cls-6" d="M504.15,119.35,438.54,136.6q10.35-7.72,21.44-14.88l65.61-17.25q-11.07,7.16-21.44,14.88" transform="translate(0.26 -10.7)"/><path class="cls-6" d="M525.59,104.47,460,121.72q12.93-8.35,26.75-16l65.62-17.25q-13.8,7.6-26.76,16" transform="translate(0.26 -10.7)"/><path class="cls-6" d="M552.35,88.51l-65.62,17.25Q503.85,96.32,522.05,88l65.62-17.25c-12.11,5.57-23.92,11.49-35.32,17.78" transform="translate(0.26 -10.7)"/><path class="cls-6" d="M587.67,70.73,522.05,88c15.73-7.24,32-13.88,48.53-20L636.2,50.73c-16.56,6.11-32.81,12.76-48.53,20" transform="translate(0.26 -10.7)"/><path class="cls-6" d="M636.2,50.73,570.58,68c24.17-8.93,49-16.72,73.9-23.56L710.1,27.17C685.21,34,660.37,41.8,636.2,50.73" transform="translate(0.26 -10.7)"/><path class="cls-8" d="M710.1,27.17,644.48,44.42q5.84-1.61,11.65-3.13L721.75,24q-5.82,1.53-11.65,3.13" transform="translate(0.26 -10.7)"/></g></g></g><path class="cls-9" d="M777.89,10.7C675.69,48.85,554.8,116.09,517.08,239.87c-49.91,163.82,87,291.62,52.93,439.38C545.83,784.1,434.83,902.15,65.35,971.19,366.92,877.38,455,756.84,474,657.35c29.31-153.2-103.26-265.93-64-408.72C448.45,108.55,623.68,43.72,777.89,10.7Z" transform="translate(0.26 -10.7)"/></g><g class="cls-2"><g class="cls-2"><g class="cls-10"><g class="cls-2"><path class="cls-11" d="M555.83,949.89l-65.61,17.25C460.46,975,427.76,982.28,391.87,989l65.61-17.25c35.9-6.71,68.59-14,98.35-21.85" transform="translate(0.26 -10.7)"/></g></g></g><g class="cls-2"><g class="cls-12"><g class="cls-2"><path class="cls-13" d="M457.48,971.74,391.87,989q29.78-9.25,56-19l65.62-17.25q-26.24,9.69-56,19" transform="translate(0.26 -10.7)"/><path class="cls-13" d="M513.46,952.78,447.84,970c22.6-8.34,43.29-16.89,62.23-25.61l65.61-17.26c-18.93,8.72-39.62,17.28-62.22,25.62" transform="translate(0.26 -10.7)"/><path class="cls-14" d="M575.68,927.16l-65.61,17.26q22.7-10.45,42.1-21.2L617.79,906c-13,7.15-27,14.22-42.11,21.19" transform="translate(0.26 -10.7)"/><path class="cls-14" d="M617.79,906l-65.62,17.25q16.59-9.15,30.94-18.45l65.61-17.25q-14.37,9.3-30.93,18.45" transform="translate(0.26 -10.7)"/><path class="cls-14" d="M648.72,887.52l-65.61,17.25q12.67-8.19,23.73-16.47L672.46,871q-11.07,8.28-23.74,16.48" transform="translate(0.26 -10.7)"/><path class="cls-14" d="M672.46,871,606.84,888.3q10.14-7.57,19-15.2l65.62-17.25q-8.87,7.62-19,15.19" transform="translate(0.26 -10.7)"/><path class="cls-15" d="M691.45,855.85,625.83,873.1q8.32-7.14,15.58-14.29L707,841.55q-7.26,7.16-15.57,14.3" transform="translate(0.26 -10.7)"/><path class="cls-15" d="M707,841.55l-65.61,17.26q7-6.9,13.08-13.78l65.62-17.26Q714,834.66,707,841.55" transform="translate(0.26 -10.7)"/><path class="cls-15" d="M720.11,827.77,654.49,845q6.07-6.88,11.3-13.75L731.41,814q-5.24,6.86-11.3,13.74" transform="translate(0.26 -10.7)"/><path class="cls-15" d="M731.41,814l-65.62,17.25q5.44-7.14,10-14.23l65.62-17.25q-4.57,7.1-10,14.23" transform="translate(0.26 -10.7)"/><path class="cls-16" d="M741.41,799.8l-65.62,17.25q5-7.78,9.08-15.51l65.62-17.25q-4.07,7.71-9.08,15.51" transform="translate(0.26 -10.7)"/><path class="cls-11" d="M750.49,784.29l-65.62,17.25a186.76,186.76,0,0,0,8.63-18.78l65.62-17.25a192.39,192.39,0,0,1-8.63,18.78" transform="translate(0.26 -10.7)"/><path class="cls-11" d="M759.12,765.51,693.5,782.76A182.39,182.39,0,0,0,703,750c22.31-116.65-78.62-202.49-48.77-311.2a158.36,158.36,0,0,1,5.44-16.27l65.62-17.25a156,156,0,0,0-5.44,16.27C690,530.3,790.94,616.14,768.62,732.79a181.52,181.52,0,0,1-9.5,32.72" transform="translate(0.26 -10.7)"/><path class="cls-11" d="M725.3,405.32l-65.62,17.25a158.32,158.32,0,0,1,7.25-15.75l65.61-17.25a160.55,160.55,0,0,0-7.24,15.75" transform="translate(0.26 -10.7)"/><path class="cls-16" d="M732.54,389.57l-65.61,17.25q3.44-6.52,7.44-12.71L740,376.86q-4,6.18-7.45,12.71" transform="translate(0.26 -10.7)"/><path class="cls-15" d="M740,376.86l-65.62,17.25q3.72-5.78,7.92-11.26l65.62-17.26q-4.18,5.49-7.92,11.27" transform="translate(0.26 -10.7)"/><path class="cls-15" d="M747.91,365.59l-65.62,17.26c2.78-3.66,5.72-7.22,8.78-10.69l65.62-17.25q-4.61,5.2-8.78,10.68" transform="translate(0.26 -10.7)"/><path class="cls-15" d="M756.69,354.91l-65.62,17.25q4.75-5.37,9.94-10.46l65.62-17.25q-5.18,5.08-9.94,10.46" transform="translate(0.26 -10.7)"/><path class="cls-15" d="M766.63,344.45,701,361.7q5.5-5.4,11.45-10.5L778.08,334q-5.94,5.08-11.45,10.5" transform="translate(0.26 -10.7)"/><path class="cls-14" d="M778.08,334,712.46,351.2q6.51-5.58,13.5-10.8l65.62-17.25q-7,5.22-13.5,10.8" transform="translate(0.26 -10.7)"/><path class="cls-14" d="M791.58,323.15,726,340.4q7.89-5.88,16.33-11.32l65.61-17.26q-8.43,5.44-16.32,11.33" transform="translate(0.26 -10.7)"/><path class="cls-14" d="M807.9,311.82l-65.61,17.26c6.56-4.25,13.37-8.3,20.37-12.16l65.62-17.25q-10.51,5.79-20.38,12.15" transform="translate(0.26 -10.7)"/><path class="cls-14" d="M828.28,299.67l-65.62,17.25c8.68-4.79,17.67-9.3,26.89-13.54l65.62-17.25c-9.22,4.24-18.21,8.75-26.89,13.54" transform="translate(0.26 -10.7)"/><path class="cls-13" d="M855.17,286.13l-65.62,17.25c12-5.51,24.34-10.57,37-15.23l65.61-17.25c-12.61,4.66-25,9.72-37,15.23" transform="translate(0.26 -10.7)"/><path class="cls-13" d="M892.12,270.9l-65.61,17.25c18.4-6.8,37.33-12.73,56.28-17.94L948.41,253c-19,5.21-37.88,11.15-56.29,17.95" transform="translate(0.26 -10.7)"/><path class="cls-17" d="M948.41,253l-65.62,17.26c3-.82,5.92-1.61,8.88-2.39l65.62-17.25q-4.44,1.17-8.88,2.38" transform="translate(0.26 -10.7)"/></g></g></g><path class="cls-18" d="M1000,240.42c-77.81,29.06-169.86,80.25-198.58,174.51-38,124.71,66.24,222,40.3,334.53-18.41,79.83-102.93,169.72-384.24,222.28,229.6-71.43,296.66-163.21,311.14-239C790.94,616.14,690,530.3,719.86,421.59,749.17,314.93,882.58,265.57,1000,240.42Z" transform="translate(0.26 -10.7)"/></g></svg>