<?xml version="1.0" encoding="UTF-8" standalone="no"?>
<svg
   viewBox="0 0 630 630"
   version="1.1"
   id="svg6"
   xmlns="http://www.w3.org/2000/svg"
   xmlns:svg="http://www.w3.org/2000/svg">
  <defs
     id="defs10" />
  <path
     width="571.06342"
     height="571.06342"
     fill="#f7df1e"
     id="rect2"
     x="29.468292"
     y="29.468292"
     style="stroke-width:0.90645"
     d="M 66.468292,29.468292 H 563.53171 a 37,37 45 0 1 37,37 V 563.53171 a 37,37 135 0 1 -37,37 H 66.468292 a 37,37 45 0 1 -37,-37 V 66.468292 a 37,37 135 0 1 37,-37 z" />
  <path
     d="m 413.07787,475.61385 c 11.50285,18.78164 26.46834,32.58687 52.93667,32.58687 22.23522,0 36.43929,-11.11308 36.43929,-26.46834 0,-18.40093 -14.59385,-24.9183 -39.06799,-35.62348 l -13.41546,-5.75595 c -38.72354,-16.49739 -64.44859,-37.16445 -64.44859,-80.85533 0,-40.24637 30.6652,-70.88438 78.58921,-70.88438 34.11877,0 58.6473,11.87449 76.32307,42.96572 l -41.78733,26.83092 c -9.20047,-16.49739 -19.1261,-22.99663 -34.53574,-22.99663 -15.71784,0 -25.67973,9.97095 -25.67973,22.99663 0,16.09855 9.97095,22.61592 32.99478,32.58687 l 13.41546,5.74689 c 45.59442,19.55213 71.3376,39.48496 71.3376,84.29984 0,48.31378 -37.95306,74.78211 -88.92273,74.78211 -49.83661,0 -82.03371,-23.74898 -97.78781,-54.87647 z m -189.56586,4.65008 c 8.42999,14.95643 16.09855,27.6014 34.53574,27.6014 17.63045,0 28.75259,-6.89808 28.75259,-33.71993 V 291.67704 h 53.66183 v 183.19352 c 0,55.56537 -32.57781,80.85532 -80.13016,80.85532 -42.96573,0 -67.84778,-22.23521 -80.50182,-49.01627 z"
     id="path4"
     style="stroke-width:0.90645" />
</svg>
