<?xml version="1.0" encoding="UTF-8" standalone="no"?>
<svg
   height="144"
   width="144"
   version="1.1"
   id="svg6"
   sodipodi:docname="rust-logo-blk.svg"
   inkscape:version="1.1.1 (3bf5ae0d25, 2021-09-20, custom)"
   xmlns:inkscape="http://www.inkscape.org/namespaces/inkscape"
   xmlns:sodipodi="http://sodipodi.sourceforge.net/DTD/sodipodi-0.dtd"
   xmlns="http://www.w3.org/2000/svg"
   xmlns:svg="http://www.w3.org/2000/svg">
  <defs
     id="defs10" />
  <sodipodi:namedview
     id="namedview8"
     pagecolor="#505050"
     bordercolor="#ffffff"
     borderopacity="1"
     inkscape:pageshadow="0"
     inkscape:pageopacity="0"
     inkscape:pagecheckerboard="1"
     showgrid="false"
     inkscape:zoom="3.0243056"
     inkscape:cx="-11.407577"
     inkscape:cy="113.08381"
     inkscape:window-width="1920"
     inkscape:window-height="1025"
     inkscape:window-x="0"
     inkscape:window-y="1106"
     inkscape:window-maximized="1"
     inkscape:current-layer="layer1"
     inkscape:snap-object-midpoints="true" />
  <g
     inkscape:groupmode="layer"
     id="layer1"
     inkscape:label="Layer 1">
    <circle
       style="fill:#1a1a1a;fill-opacity:1;stroke:none;stroke-width:1.03778;stroke-opacity:1"
       id="path2101"
       cx="72"
       cy="72"
       r="68.418991" />
  </g>
  <path
     d="m 72,12.838906 c -32.615575,0 -59.161096,26.558038 -59.161096,59.161096 0,32.603058 26.558037,59.161088 59.161096,59.161088 32.60306,0 59.1611,-26.55803 59.1611,-59.161088 0,-32.603058 -26.55804,-59.161096 -59.1611,-59.161096 z m -0.08761,5.256539 a 3.8798265,3.8923421 0 0 1 3.779702,3.892342 3.8923421,3.8923421 0 0 1 -7.784684,0 3.8923421,3.8923421 0 0 1 4.004982,-3.892342 z m 8.911085,6.407971 a 47.897084,47.897084 0 0 1 32.790795,23.354053 l -4.59321,10.36289 c -0.78848,1.789727 0.025,3.892342 1.80224,4.69334 l 8.83599,3.917373 a 47.897084,47.897084 0 0 1 0.10013,8.310338 h -4.91862 c -0.48811,0 -0.68836,0.325405 -0.68836,0.800996 v 2.252803 c 0,5.306601 -2.99122,6.470549 -5.61949,6.758407 -2.50311,0.287858 -5.26906,-1.051307 -5.61949,-2.578207 -1.47684,-8.297822 -3.929894,-10.062518 -7.809721,-13.128832 4.818494,-3.053799 9.824731,-7.57192 9.824731,-13.604424 0,-6.520612 -4.46807,-10.625718 -7.509351,-12.640725 -4.280324,-2.816003 -9.01121,-3.379204 -10.287798,-3.379204 H 36.318111 A 47.897084,47.897084 0 0 1 63.113945,24.503416 l 5.994958,6.282816 c 1.351681,1.41426 3.591968,1.476837 5.006227,0.11264 z M 25.504659,53.314257 a 3.8923421,3.8923421 0 0 1 3.779702,3.892342 3.8923421,3.8923421 0 0 1 -7.784684,0 3.8923421,3.8923421 0 0 1 4.004982,-3.892342 z m 92.802951,0.175218 a 3.8923421,3.8923421 0 0 1 3.7797,3.892342 3.8923421,3.8923421 0 0 1 -7.78468,0 3.8923421,3.8923421 0 0 1 4.00498,-3.892342 z m -85.468826,0.625778 h 6.783438 V 84.703305 H 25.930188 a 47.897084,47.897084 0 0 1 -1.55193,-18.285247 l 8.385431,-3.729641 c 1.789727,-0.800995 2.603239,-2.891095 1.802242,-4.680822 z m 28.310217,0.325405 h 16.1576 c 0.838543,0 5.894834,0.963699 5.894834,4.755917 0,3.141408 -3.879828,4.267809 -7.071297,4.267809 H 61.136485 Z m 0,21.97734 H 73.5269 c 1.126401,0 6.04502,0.325405 7.609466,6.608221 0.488107,1.927397 1.576961,8.210213 2.31538,10.22522 0.738419,2.252802 3.72964,6.758411 6.92111,6.758411 h 20.200134 a 47.897084,47.897084 0 0 1 -4.43051,5.13138 l -8.222736,-1.7647 c -1.914882,-0.41301 -3.804733,0.81351 -4.217747,2.72839 l -1.952428,9.11134 a 47.897084,47.897084 0 0 1 -39.937183,-0.18774 l -1.952429,-9.11133 c -0.413014,-1.91488 -2.290349,-3.14141 -4.205231,-2.72839 l -8.047511,1.72714 a 47.897084,47.897084 0 0 1 -4.15517,-4.90609 h 39.136187 c 0.438045,0 0.738418,-0.07509 0.738418,-0.488111 v -13.84222 c 0,-0.400498 -0.300373,-0.488107 -0.738418,-0.488107 H 61.136485 Z M 43.089034,108.11993 a 3.8923421,3.8923421 0 0 1 3.779702,3.89234 3.8923421,3.8923421 0 0 1 -7.784684,0 3.8923421,3.8923421 0 0 1 4.004982,-3.89234 z m 57.634206,0.17522 a 3.8923421,3.8923421 0 0 1 3.7797,3.89234 3.8923455,3.8923455 0 0 1 -7.784691,0 3.8923421,3.8923421 0 0 1 4.004991,-3.89234 z"
     id="path2"
     style="fill:#803300;fill-opacity:1;stroke-width:1.25156" />
  <path
     d="M 127.85699,72.000001 A 55.856986,55.856986 0 0 1 71.999999,127.85698 55.856986,55.856986 0 0 1 16.143014,72.000001 55.856986,55.856986 0 0 1 71.999999,16.143015 55.856986,55.856986 0 0 1 127.85699,72.000001 Z m -1.05131,-5.39421 8.71084,5.39421 -8.71084,5.39421 7.48431,6.996204 -9.58692,3.591968 5.98244,8.322854 -10.1251,1.652055 4.2553,9.336608 -10.25025,-0.36295 2.35292,9.98742 -9.98742,-2.35292 0.36295,10.25025 -9.33662,-4.2553 -1.652055,10.1251 -8.322854,-5.98244 -3.591968,9.58692 -6.996204,-7.48431 -5.39421,8.71084 -5.39421,-8.71084 -6.996204,7.48431 -3.591968,-9.58692 -8.322854,5.98244 -1.652055,-10.1251 -9.336614,4.2553 0.362951,-10.25025 -9.987424,2.35292 2.352927,-9.98742 -10.250251,0.36295 4.255293,-9.336608 -10.125095,-1.652055 5.982442,-8.322854 -9.5869267,-3.591968 7.4843107,-6.996204 -8.7108365,-5.39421 8.7108365,-5.39421 -7.4843107,-6.996204 9.5869267,-3.591968 -5.982442,-8.322854 10.125095,-1.652055 -4.255293,-9.336614 10.250251,0.362951 -2.352927,-9.987424 9.987424,2.352927 -0.362951,-10.250251 9.336614,4.255293 1.652055,-10.125095 8.322854,5.982442 3.591968,-9.5869268 6.996204,7.4843108 5.39421,-8.7108366 5.39421,8.7108366 6.996204,-7.4843108 3.591968,9.5869268 8.322854,-5.982442 1.652055,10.125095 9.33662,-4.255293 -0.36295,10.250251 9.98742,-2.352927 -2.35292,9.987424 10.25025,-0.362951 -4.2553,9.336614 10.1251,1.652055 -5.98244,8.322854 9.58692,3.591968 z"
     fill-rule="evenodd"
     stroke="#000"
     stroke-linecap="round"
     stroke-linejoin="round"
     stroke-width="3.75467"
     id="path4"
     style="fill:#803300;stroke:#803300;stroke-opacity:1" />
</svg>
